<svg width="44" height="44" viewBox="0 0 44 44" fill="none" xmlns="http://www.w3.org/2000/svg">
<path d="M15.9834 43.3333L15.1167 36.4C14.6472 36.2194 14.2052 36.0028 13.7907 35.75C13.3761 35.4972 12.9695 35.2264 12.5709 34.9375L6.12502 37.6458L0.166687 27.3542L5.74585 23.1292C5.70974 22.8764 5.69169 22.633 5.69169 22.399V20.9365C5.69169 20.7011 5.70974 20.4569 5.74585 20.2042L0.166687 15.9792L6.12502 5.6875L12.5709 8.39583C12.9681 8.10694 13.3834 7.83611 13.8167 7.58333C14.25 7.33055 14.6834 7.11389 15.1167 6.93333L15.9834 0H27.9L28.7667 6.93333C29.2361 7.11389 29.6789 7.33055 30.0949 7.58333C30.5109 7.83611 30.9167 8.10694 31.3125 8.39583L37.7583 5.6875L43.7167 15.9792L38.1375 20.2042C38.1736 20.4569 38.1917 20.7011 38.1917 20.9365V22.3968C38.1917 22.6323 38.1556 22.8764 38.0834 23.1292L43.6625 27.3542L37.7042 37.6458L31.3125 34.9375C30.9153 35.2264 30.5 35.4972 30.0667 35.75C29.6334 36.0028 29.2 36.2194 28.7667 36.4L27.9 43.3333H15.9834ZM22.05 29.25C24.1445 29.25 25.932 28.5097 27.4125 27.0292C28.8931 25.5486 29.6334 23.7611 29.6334 21.6667C29.6334 19.5722 28.8931 17.7847 27.4125 16.3042C25.932 14.8236 24.1445 14.0833 22.05 14.0833C19.9195 14.0833 18.1226 14.8236 16.6594 16.3042C15.1961 17.7847 14.4652 19.5722 14.4667 21.6667C14.4681 23.7611 15.1997 25.5486 16.6615 27.0292C18.1233 28.5097 19.9195 29.25 22.05 29.25Z" fill="white"/>
</svg>
