<svg width="40" height="40" viewBox="0 0 40 40" fill="none" xmlns="http://www.w3.org/2000/svg">
<path fill-rule="evenodd" clip-rule="evenodd" d="M30.5035 17.4299C30.5035 19.1467 30.1654 20.8468 29.5084 22.4329C28.8514 24.0191 27.8883 25.4603 26.6743 26.6743C25.4603 27.8883 24.0191 28.8514 22.4329 29.5084C20.8468 30.1654 19.1467 30.5035 17.4299 30.5035C15.713 30.5035 14.0129 30.1654 12.4268 29.5084C10.8406 28.8514 9.39937 27.8883 8.18537 26.6743C6.97137 25.4603 6.00837 24.0191 5.35135 22.4329C4.69434 20.8468 4.35618 19.1467 4.35618 17.4299C4.35618 13.9625 5.73358 10.6372 8.18537 8.18537C10.6372 5.73358 13.9625 4.35618 17.4299 4.35618C20.8972 4.35618 24.2226 5.73358 26.6743 8.18537C29.1261 10.6372 30.5035 13.9625 30.5035 17.4299ZM28.1212 31.2008C24.6186 33.9201 20.2113 35.2022 15.7965 34.7863C11.3818 34.3704 7.29149 32.2876 4.35835 28.962C1.42522 25.6364 -0.130272 21.318 0.00855301 16.8858C0.147378 12.4537 1.97008 8.24112 5.1056 5.1056C8.24112 1.97008 12.4537 0.147378 16.8858 0.00855301C21.318 -0.130272 25.6364 1.42522 28.962 4.35835C32.2876 7.29149 34.3704 11.3818 34.7863 15.7965C35.2022 20.2113 33.9201 24.6186 31.2008 28.1212L39.3065 36.2269C39.5206 36.4264 39.6923 36.6669 39.8114 36.9342C39.9305 37.2015 39.9945 37.49 39.9997 37.7826C40.0048 38.0752 39.951 38.3658 39.8414 38.6371C39.7318 38.9084 39.5687 39.1549 39.3618 39.3618C39.1549 39.5687 38.9084 39.7318 38.6371 39.8414C38.3658 39.951 38.0752 40.0048 37.7826 39.9997C37.49 39.9945 37.2015 39.9305 36.9342 39.8114C36.6669 39.6923 36.4264 39.5206 36.2269 39.3065L28.1212 31.2008Z" fill="white"/>
</svg>
