<svg width="37" height="36" viewBox="0 0 37 36" fill="none" xmlns="http://www.w3.org/2000/svg">
<path d="M18.25 0C28.1454 0 36.1667 8.02129 36.1667 17.9167C36.1683 20.6982 35.5216 23.4419 34.2779 25.9299C33.0342 28.418 31.2277 30.5819 29.0018 32.25H32.5833C33.0585 32.25 33.5142 32.4388 33.8502 32.7748C34.1863 33.1108 34.375 33.5665 34.375 34.0417C34.375 34.5168 34.1863 34.9726 33.8502 35.3086C33.5142 35.6446 33.0585 35.8333 32.5833 35.8333H18.25C8.35464 35.8333 0.333344 27.812 0.333344 17.9167C0.333344 8.02129 8.35464 0 18.25 0ZM18.25 21.5C17.2997 21.5 16.3882 21.8775 15.7162 22.5495C15.0442 23.2215 14.6667 24.133 14.6667 25.0833C14.6667 26.0337 15.0442 26.9451 15.7162 27.6171C16.3882 28.2891 17.2997 28.6667 18.25 28.6667C19.2004 28.6667 20.1118 28.2891 20.7838 27.6171C21.4558 26.9451 21.8333 26.0337 21.8333 25.0833C21.8333 24.133 21.4558 23.2215 20.7838 22.5495C20.1118 21.8775 19.2004 21.5 18.25 21.5ZM11.0833 14.3333C10.133 14.3333 9.22155 14.7109 8.54955 15.3829C7.87754 16.0549 7.50001 16.9663 7.50001 17.9167C7.50001 18.867 7.87754 19.7785 8.54955 20.4505C9.22155 21.1225 10.133 21.5 11.0833 21.5C12.0337 21.5 12.9451 21.1225 13.6171 20.4505C14.2891 19.7785 14.6667 18.867 14.6667 17.9167C14.6667 16.9663 14.2891 16.0549 13.6171 15.3829C12.9451 14.7109 12.0337 14.3333 11.0833 14.3333ZM25.4167 14.3333C24.4663 14.3333 23.5549 14.7109 22.8829 15.3829C22.2109 16.0549 21.8333 16.9663 21.8333 17.9167C21.8333 18.867 22.2109 19.7785 22.8829 20.4505C23.5549 21.1225 24.4663 21.5 25.4167 21.5C26.367 21.5 27.2785 21.1225 27.9505 20.4505C28.6225 19.7785 29 18.867 29 17.9167C29 16.9663 28.6225 16.0549 27.9505 15.3829C27.2785 14.7109 26.367 14.3333 25.4167 14.3333ZM18.25 7.16667C17.2997 7.16667 16.3882 7.5442 15.7162 8.2162C15.0442 8.88821 14.6667 9.79964 14.6667 10.75C14.6667 11.7004 15.0442 12.6118 15.7162 13.2838C16.3882 13.9558 17.2997 14.3333 18.25 14.3333C19.2004 14.3333 20.1118 13.9558 20.7838 13.2838C21.4558 12.6118 21.8333 11.7004 21.8333 10.75C21.8333 9.79964 21.4558 8.88821 20.7838 8.2162C20.1118 7.5442 19.2004 7.16667 18.25 7.16667Z" fill="white"/>
</svg>
