<svg width="36" height="37" viewBox="0 0 36 37" fill="none" xmlns="http://www.w3.org/2000/svg">
<path d="M24.2001 7.57708H34.2227C35.2046 7.57708 36.0001 8.37437 36.0001 9.36875V34.4521C36.0001 35.4411 35.1848 36.2438 34.2227 36.2438H1.94405C1.70957 36.2433 1.4775 36.1965 1.26114 36.1061C1.04478 36.0158 0.848393 35.8835 0.683258 35.7171C0.518124 35.5506 0.387487 35.3532 0.298846 35.1361C0.210205 34.919 0.165304 34.6866 0.166719 34.4521V9.36875C0.166719 8.37975 0.981928 7.57708 1.94405 7.57708H11.9666L7.42297 3.03342L9.95639 0.5L17.0335 7.57708H19.1333L26.2104 0.5L28.7438 3.03342L24.2001 7.57708Z" fill="white"/>
</svg>
