<svg xmlns="http://www.w3.org/2000/svg" width="1em" height="1em" viewBox="0 0 48 48"><path fill="currentColor" d="M25.388 22.34v-.056l-.037.057z"/><circle cx="15.64" cy="13.463" r=".75" fill="currentColor"/><path fill="none" stroke="currentColor" stroke-linecap="round" stroke-linejoin="round" d="M15.64 16.93v14.982m17.47 0v-9.608a5.823 5.823 0 0 0-5.823-5.824h0a5.823 5.823 0 0 0-5.824 5.824v9.608m0-9.608V16.93"/><path fill="none" stroke="currentColor" stroke-linecap="round" stroke-linejoin="round" d="M38.5 5.5h-29a4 4 0 0 0-4 4v29a4 4 0 0 0 4 4h29a4 4 0 0 0 4-4v-29a4 4 0 0 0-4-4"/></svg>