<?xml version="1.0" encoding="UTF-8" standalone="no"?>
<!DOCTYPE svg PUBLIC "-//W3C//DTD SVG 1.1//EN" "http://www.w3.org/Graphics/SVG/1.1/DTD/svg11.dtd">
<svg xmlns="http://www.w3.org/2000/svg" version="1.1" viewBox="0.00 0.00 500.00 500.00">
<path fill="#ffffff" d="
  M 285.16 237.14
  Q 287.68 247.79 293.10 256.82
  C 296.38 262.28 302.21 264.79 308.31 266.52
  Q 318.11 269.30 328.08 272.32
  C 330.59 273.08 333.20 273.43 335.73 274.03
  Q 336.95 274.31 337.18 275.54
  Q 337.69 278.25 337.85 280.91
  C 339.31 305.32 329.80 333.02 312.01 350.25
  C 308.72 353.44 307.20 356.58 307.60 361.37
  Q 308.03 366.54 312.17 369.31
  Q 320.58 374.93 328.75 380.04
  C 331.31 381.65 334.40 384.13 334.11 387.48
  C 333.62 393.04 329.92 394.78 324.94 394.71
  Q 315.42 394.56 306.61 394.62
  C 301.97 394.65 297.32 391.13 293.60 388.62
  Q 285.78 383.35 277.28 378.17
  C 275.92 377.34 273.86 377.66 272.47 378.24
  Q 261.52 382.81 250.12 383.99
  C 248.55 384.16 247.18 384.13 245.91 383.04
  Q 242.59 380.17 239.68 379.90
  Q 220.92 378.19 197.33 376.93
  Q 196.36 376.88 197.22 376.44
  C 200.18 374.90 203.24 373.64 205.97 371.80
  Q 227.48 357.29 227.87 331.04
  Q 228.10 315.40 218.58 302.21
  C 206.74 285.81 184.28 278.54 164.93 285.17
  C 158.85 287.26 150.53 291.04 147.00 296.35
  A 1.81 1.80 32.4 0 0 147.58 298.90
  Q 149.06 299.79 150.37 298.65
  C 160.30 290.04 174.40 285.13 187.55 288.00
  Q 210.90 293.10 219.91 313.81
  C 226.70 329.41 223.92 346.81 212.80 359.89
  Q 200.37 374.52 180.29 375.11
  A 2.78 2.77 -80.9 0 0 177.75 376.95
  Q 177.70 377.11 177.75 377.29
  Q 178.28 379.20 180.08 379.40
  C 187.65 380.23 195.01 380.30 202.46 381.00
  Q 220.03 382.66 237.41 383.90
  C 244.27 384.39 246.70 389.82 243.78 395.49
  Q 242.39 398.16 241.07 400.64
  A 2.08 2.07 -74.1 0 1 239.12 401.73
  Q 207.43 399.86 176.82 397.75
  C 167.08 397.08 158.15 393.61 148.90 389.96
  C 127.37 381.46 120.61 364.18 117.33 343.13
  Q 115.74 332.88 116.48 323.32
  C 118.16 301.54 127.08 280.74 142.13 264.82
  Q 164.60 241.04 197.85 236.18
  Q 208.96 234.56 219.85 235.78
  Q 229.90 236.91 240.88 238.53
  Q 250.15 239.90 255.46 238.62
  C 266.93 235.83 274.64 226.24 275.13 214.29
  Q 275.64 201.83 275.78 190.02
  Q 275.87 182.95 271.94 177.13
  Q 267.92 171.16 263.36 164.84
  Q 254.15 152.07 253.20 137.49
  Q 252.76 130.69 254.26 120.17
  Q 255.52 111.30 256.49 103.03
  Q 256.84 100.10 259.43 98.74
  C 261.54 97.63 263.88 99.62 265.08 101.18
  Q 272.25 110.49 279.74 119.24
  Q 288.10 128.99 291.39 135.33
  Q 301.47 154.81 294.97 177.76
  Q 294.22 180.42 296.99 180.74
  Q 314.48 182.72 331.95 185.04
  Q 334.32 185.35 336.51 185.55
  C 346.16 186.45 351.17 191.66 355.54 199.79
  Q 362.18 212.16 368.76 224.00
  C 371.82 229.50 375.49 234.07 379.35 238.88
  C 381.89 242.05 379.72 245.81 377.56 248.37
  A 1.98 1.97 -62.1 0 1 375.52 249.00
  C 371.66 247.92 371.97 245.06 370.21 242.31
  C 369.23 240.79 366.90 241.24 366.65 243.04
  Q 366.52 243.99 366.80 244.94
  Q 368.55 250.82 373.61 252.86
  Q 374.26 253.13 373.87 253.72
  C 369.48 260.26 366.18 265.30 357.60 266.78
  Q 351.08 267.91 343.25 268.87
  C 338.47 269.45 333.99 269.15 329.37 267.82
  Q 316.05 263.97 303.97 259.99
  Q 299.09 258.38 296.49 253.71
  Q 292.47 246.50 289.76 236.31
  Q 289.20 234.21 287.04 234.22
  Q 286.73 234.23 286.46 234.36
  Q 284.71 235.23 285.16 237.14
  Z
  M 342.21 217.99
  Q 340.60 214.42 340.41 210.90
  C 339.84 200.25 324.35 200.01 323.43 210.45
  C 322.90 216.45 327.02 219.78 332.48 220.50
  Q 335.52 220.90 338.28 221.56
  C 340.56 222.11 343.61 221.09 342.21 217.99
  Z"
/>
<path fill="#ffffff" d="
  M 315.44 140.10
  C 318.19 147.41 320.66 154.64 321.02 162.55
  Q 321.39 170.87 319.68 178.43
  Q 319.55 179.00 318.96 178.97
  Q 309.44 178.51 300.26 176.78
  A 0.54 0.54 0.0 0 1 299.84 176.13
  Q 305.90 150.30 292.48 128.04
  Q 290.85 125.33 291.53 121.51
  Q 292.78 114.45 294.79 107.76
  C 296.32 102.63 301.81 102.23 303.58 107.33
  Q 309.11 123.28 315.44 140.10
  Z"
/>
</svg>
